<svg width="584" height="761" viewBox="0 0 584 761" fill="none" xmlns="http://www.w3.org/2000/svg">
<path d="M278.541 0.23526C326.88 0.166993 376.2 -0.304866 424.463 0.318536C424.853 6.47679 424.605 12.4422 424.447 18.6028C430.5 18.4092 437.512 18.587 443.64 18.5952L443.557 150.167L463.32 150.093C463.477 158.144 463.47 166.197 463.283 174.247C456.578 174.378 449.647 174.279 442.92 174.259L442.935 226.238L423.675 226.251C424.065 230.918 423.855 237.535 423.84 242.349L401.61 242.219L401.618 256.273L423.472 256.222L423.412 275.678L440.505 275.712L440.528 326.822C450.533 326.644 460.545 326.637 470.55 326.799L470.588 309.209L489.982 309.05L490.028 291.288C494.318 290.946 500.04 291.129 504.443 291.143L504.42 256.286L564.36 256.399C564.21 262.304 564.307 268.644 564.3 274.585C569.97 274.387 577.515 274.745 583.32 274.862C583.687 293.042 583.425 312.074 583.447 330.32C577.312 330.463 570.63 330.322 564.45 330.314C564.51 336.422 564.57 341.974 564.99 348.079C558.143 348.055 551.43 348.528 544.583 348.054C544.373 354.54 544.47 360.752 544.568 367.238L526.028 367.237C526.26 372.547 526.23 378.429 526.298 383.79L506.768 383.634L507.285 399.216C501.87 399.35 495.885 399.215 490.425 399.192L490.41 366.396L472.26 366.24C472.537 360.596 472.418 353.748 472.47 348.016C468.045 348.172 463.837 348.154 459.42 348.121L459.428 367.183L439.455 367.241C439.11 355.416 439.38 342.255 439.395 330.331C434.168 330.592 428.708 330.49 423.45 330.477L423.42 368.973L423.435 383.909L403.042 383.776L402.952 417.503L440.49 417.563L440.572 435.437L453.345 434.942L453.232 418.073L471.435 418.024L471.428 399.304C477.203 399.553 484.522 399.276 490.425 399.192C490.5 404.741 490.365 412.949 490.792 418.276C484.77 418.288 478.133 418.432 472.178 418.234L472.17 436.287L452.535 436.301L452.542 454.23L436.17 454.312L436.208 436.325L401.678 436.392C401.685 460.703 402 485.743 401.64 509.992C407.82 509.944 414.293 509.805 420.443 509.933L420.487 544.252L436.357 544.2C436.372 551.234 436.628 560.206 436.2 567.08L451.74 566.752C451.515 583.12 450.637 606.791 451.627 622.538L468.45 622.343C468.45 635.508 468.608 648.982 468.428 662.11C474.675 661.9 480.188 661.757 486.443 661.915V692.987L542.393 693.07C542.55 706.776 542.558 720.474 542.423 734.18L524.565 734.225L524.49 743.107C511.178 743.272 497.865 743.287 484.553 743.137L484.312 753.737C479.43 753.655 465.338 753.032 461.153 754.202C461.04 756.79 461.52 758.643 460.118 760.084C443.843 761.089 424.05 760.129 407.408 760.301L407.513 727.353L388.478 727.233C388.38 716.266 388.38 705.298 388.485 694.33L370.05 694.278C370.11 683.798 369.975 672.41 370.268 661.997L348.577 661.885C349.012 655.891 348.983 650.144 349.013 644.151L231.455 644.27L231.499 662.162L210.43 662.17L210.467 679.282L190.415 679.334L190.43 696.401C173.58 696.003 155.391 696.423 138.445 696.513L138.455 679.297L108.446 679.282L108.466 662.11L41.5867 662.177C41.547 655.876 41.358 648.839 41.5508 642.59L20.5477 642.583L20.5463 662.095C27.8415 661.825 33.4118 661.78 40.6973 662.095C40.7925 667.519 40.8097 673.168 41.0025 678.569L0 678.606C0.651 661.72 0.265484 642.35 0.0397339 625.306L20.457 625.171C20.562 615.223 20.5583 605.266 20.445 595.313L33.3877 595.105C33.3877 588.178 33.5595 581.087 32.724 574.22C37.5825 574.258 42.6353 574.222 47.4758 574.403C47.4938 566.966 47.364 559.531 47.0865 552.098L86.4735 552.083L86.742 566.836C93.93 565.651 115.895 566.084 124.32 566.081C124.248 572.469 124.123 578.869 124.285 585.253C119.287 585.378 114.286 585.408 109.285 585.342C109.501 598.969 109.531 612.598 109.374 626.229C102.862 626.236 96.231 626.176 89.7307 626.259L89.7728 642.628L110.356 642.598C110.2 648.854 109.978 655.006 110.218 661.27L139.463 661.255L139.426 678.216C155.208 678.081 172.157 678.396 187.748 677.931L187.858 660.557L199.904 660.902C202.692 660.947 206.206 661.105 208.927 661.022L208.919 642.673C216.295 642.71 224.12 642.62 231.455 642.86L231.415 626.236C216.5 626.221 200.314 625.884 185.509 626.244L185.515 605.184L162.455 605.146L162.43 626.161C156.02 626.161 149.069 626.296 142.709 626.124C142.679 619.184 142.562 612.043 142.666 605.12L124.324 605.019C124.362 598.514 124.498 591.727 124.285 585.253C132.811 584.959 141.96 585.129 150.536 585.142L150.484 571.203C145.222 571.314 139.735 571.211 134.453 571.188L134.427 547.244L151.026 547.178C150.698 541.867 150.661 535.739 150.505 530.359C156.358 530.099 162.985 530.21 168.914 530.191L168.961 510.147L187.806 509.999C186.887 499.099 187.399 482.887 187.438 471.544L167.702 471.573L167.899 455.158L152.486 455.147L152.517 436.447L128.9 436.367C128.868 430.561 128.924 424.756 129.066 418.952C122.198 419.111 115.313 418.948 108.443 418.846L108.46 382.349C101.144 382.508 93.8257 382.47 86.5125 382.233C86.7487 364.718 86.5463 346.74 86.5545 329.187L107.59 329.151L107.43 307.265L122.514 307.417L122.538 275.761L105.406 275.996L105.457 222.337C98.8642 222.383 92.2703 222.286 85.6808 222.048C85.8083 210.222 85.854 198.396 85.8172 186.57L66.4477 186.435L66.444 135.249L47.394 135.397C47.6558 122.061 46.731 108.264 47.3828 95.0262L29.4892 95.1004C29.5492 83.8184 29.5185 72.5364 29.3963 61.2552L46.7797 61.2087L46.6928 44.25C54.0488 44.055 62.0175 44.1795 69.4253 44.1495L69.4763 61.2402L88.2487 61.1974C88.2375 72.1463 88.3065 83.0952 88.4557 94.0434L107.529 94.2092L107.485 112.185C115.948 112.102 124.614 112.227 133.096 112.254L133.186 128.039L154.29 128.104C154.507 133.997 154.367 140.805 154.387 146.769C160.727 146.555 167.158 146.776 173.507 146.907V164.402C178.688 164.132 184.508 164.448 189.74 164.607C189.349 171.225 189.492 179.297 189.447 186.029C195.272 186.35 201.626 186.409 207.5 186.577L207.43 205.103C212.089 205.182 216.864 205.138 221.535 205.151L221.568 221.991C229.595 222.196 237.625 222.198 245.653 221.996L245.644 204.278C237.562 204.314 228.348 204.558 220.39 203.981L220.457 173.183L200.522 173.203L200.425 150.702L181.351 150.264L181.288 96.1079C186.712 96.4418 194.475 96.2182 200.067 96.2144C200.041 89.5423 200.178 82.8702 200.478 76.2048L218.579 76.2131C218.39 65.8815 218.484 55.1232 218.446 44.7594C225.184 44.9537 231.925 45.1022 238.666 45.205C238.782 41.1593 238.705 36.7437 238.72 32.6634L256.899 32.6207L256.932 18.3694L278.527 18.3784L278.541 0.23526ZM361.147 116.8L342.6 116.952L342.592 158.154C334.62 158.162 326.4 158.276 318.45 158.135L318.472 135.214C310.83 135.285 302.993 135.264 295.373 135.446C295.403 148.077 295.2 161.626 295.553 174.182C303.158 174.211 310.77 174.173 318.382 174.067L318.412 209.17L295.402 209.191C295.44 218.966 295.32 229.158 295.537 238.896C303.3 237.786 312.533 238.578 320.513 238.304L320.693 255.61L339.285 255.724C338.962 262.37 338.805 269.022 338.805 275.676L361.987 275.638L361.882 293.013L369.982 293.1L381.412 293.078L381.465 255.224L360.45 255.344L360.495 240.535L339.382 240.392C339.697 234.749 339.915 231.027 339.533 225.344C357.458 225.144 375.382 225.109 393.307 225.238C401.67 225.245 414.42 225.51 422.572 224.866C422.452 207.822 422.438 190.777 422.528 173.732L442.335 173.81C442.335 168.662 442.253 163.324 442.365 158.195L422.535 158.006L422.685 99.2602C402.128 99.3675 381.563 99.3637 361.005 99.2482L361.147 116.8ZM152.522 310.249L132.281 310.31L132.373 330.418L108.412 330.285C108.345 347.593 108.383 364.901 108.527 382.208C115.275 382.078 122.11 381.869 128.852 381.997C128.894 387.476 129.164 395.085 128.888 400.389C137.773 400.415 158.072 399.942 166.043 400.757C165.963 395.261 166.076 387.593 165.697 382.265L186.586 382.226L188.085 381.684C188.921 378.116 188.595 370.33 188.565 366.361L166.362 366.298C166.429 361.022 166.674 354.433 166.509 349.251L225.715 349.151C225.727 342.857 225.692 336.562 225.61 330.267L206.569 330.277L206.563 310.248C200.483 310.239 193.34 310.401 187.346 310.145L187.432 294.292C178.803 294.336 160.467 294.942 152.472 294.156L152.522 310.249ZM139.949 274.508L139.947 292.773C144.128 292.579 148.314 292.543 152.497 292.667C152.469 286.765 152.574 280.223 152.363 274.375L169.018 274.354L169.115 240.617L152.552 240.558L152.513 205.847C147.198 205.756 141.679 205.581 136.381 205.627L136.451 186.647C132.492 186.683 124.001 186.526 120.41 187.002L120.415 167.101C115.832 167.15 109.926 167.385 105.45 167.187L105.453 149.705C101.105 149.666 91.341 149.814 87.447 149.357L87.39 186.731C93.4043 186.675 99.4193 186.7 105.434 186.804L105.506 222.079L124.964 222.205C125.196 239.553 125.208 256.904 125.002 274.252C129.782 274.413 135.224 274.727 139.949 274.508ZM426 709.746C426.457 703.828 426.247 698.404 426.112 692.477L466.335 692.612C466.365 682.567 466.275 672.192 466.44 662.17L446.482 662.185L446.55 625.298C436.56 625.396 422.198 625.944 412.478 625.373L412.298 644.21L371.632 644.233L371.565 659.822L392.535 659.619L392.557 693.055L411.443 693.01L411.465 710.197C414.54 710.212 423.577 710.549 426 709.746ZM505.327 710.324L505.455 725.973C511.215 725.988 517.245 726.085 522.975 725.988C522.15 721.337 522.413 715.253 522.443 710.422L505.327 710.324ZM524.498 276.353L524.505 292.631C519.563 293.077 510.518 292.854 505.485 292.437C505.508 297.907 505.485 303.492 505.583 308.951C511.95 309.071 519.172 309.053 525.472 309.422L525.443 329.094L543.607 329.128L562.41 329.125C562.417 311.717 562.162 293.681 562.44 276.33L524.498 276.353ZM244.418 472.151L244.408 437.161L226.111 437.079L226.142 419.044L208.553 419.076L208.462 437.165L188.471 437.132L188.525 472.193L224.295 472.197L244.418 472.151Z" fill="black"/>
<path d="M208.86 492.07C265.365 493.047 324.775 492.148 381.52 492.13L381.55 511.659C387.805 511.451 394.45 511.511 400.743 511.469L400.773 545.01L420.595 545.112C421.03 552.729 420.88 560.577 420.835 568.223L433.915 568.077C433.9 572.888 434.643 601.379 433.24 603.835C430.72 604.644 431.785 604.659 429.265 603.946C427.84 601.589 428.44 588.874 428.455 585.082L412.983 585.171L412.968 604.271L396.408 604.259L396.415 625.336C366.535 624.683 334.593 625.238 304.548 625.231L247.077 625.291L247.154 604.161L207.137 604.248C207.141 597.925 207.177 591.602 207.244 585.278C211.937 585.118 216.726 585.305 221.427 585.42L221.313 566.742L240.588 566.572L240.918 585.399C246.127 585.071 253.057 585.191 258.4 585.154L258.23 566.81L277.755 566.896C277.497 560.398 277.47 553.613 277.355 547.089L257.57 547.192L257.689 566.21L240.51 566.309C240.414 559.714 240.47 552.976 240.453 546.367C233.981 546.519 227.172 546.36 220.671 546.297L220.769 566.353L206.99 566.246C206.787 559.807 206.971 552.655 207.014 546.158L189.086 546.257C189.354 534.388 189.407 522.517 189.245 510.646L208.761 510.686L208.86 492.07Z" fill="#7A7A7A"/>
<path d="M394.504 546.525C399.109 546.609 403.864 546.474 408.484 546.403L408.551 567.075L395.029 566.87C394.969 573.027 395.066 579.326 395.096 585.495L377.531 585.49L377.494 604.309L358.114 604.344L358.144 585.303L347.381 585.294C344.884 585.185 342.926 584.851 340.631 585.746C337.279 589.315 338.944 598.293 339.011 604.299L318.544 604.379L318.574 585.169L298.301 585.041L298.316 604.235L277.553 604.26C277.73 597.555 277.707 590.847 277.484 584.144C284.519 584.14 291.551 584.199 298.586 584.318C298.691 578.411 298.556 572.308 298.504 566.385L318.949 566.323L318.776 547.237L339.184 547.152C339.251 553.734 339.409 559.783 338.824 566.35L358.181 566.329L358.121 547.273L377.546 547.068L377.404 566.44C383.119 566.395 388.946 566.479 394.669 566.503L394.504 546.525Z" fill="black"/>
<path d="M338.826 566.351C338.563 572.098 338.721 579.241 338.691 585.097L319.086 585.104L319.093 566.528C325.671 566.561 332.248 566.501 338.826 566.351Z" fill="#7A7A7A"/>
<path d="M358.249 566.762C364.647 566.82 371.044 566.813 377.449 566.74L377.547 585.129L358.234 585.049L358.249 566.762Z" fill="#7A7A7A"/>
<path d="M227.492 239.086L277.925 239.151L277.898 255.659L297.433 255.553L297.478 276.417L317.93 276.386L317.87 293.994L339.455 293.906L339.47 310.956L361.078 310.893L361.055 329.183L339.455 329.117L339.448 362.806L317.825 362.746C317.885 367.73 317.743 377.959 318.253 382.511L298.588 382.388C298.715 388.447 298.775 394.507 298.775 400.568L277.855 400.62L277.983 417.642L244.914 417.565L244.877 400.356L225.582 400.583L225.618 349.844L244.781 349.89L244.841 310.008L225.956 309.785L226.06 292.189L206.839 292.234L206.984 274.201L188.8 274.236C188.761 269.665 188.301 259.877 189.331 256.013C190.994 254.835 190.073 255.153 192.23 255.179C203.654 255.189 216.252 255.457 227.583 255.157L227.492 239.086Z" fill="#7A7A7A"/>
<path d="M376.088 116.059L408.465 116.023C408.518 126.383 409.095 145.972 408.21 155.645L386.115 155.746C386.843 148.91 386.618 137.487 386.678 130.281L375.758 130.26C376.185 126.848 376.05 119.753 376.088 116.059Z" fill="black"/>
<path d="M381.005 310.219L401.855 310.319L401.772 382.379C398.472 382.366 384.23 382.038 382.295 382.983L382.265 435.226C349.662 434.937 311.87 434.334 279.425 435.259L279.102 418.753C285.887 418.472 292.677 418.378 299.465 418.471L299.082 400.955L318.365 400.889C318.342 395.158 318.507 388.132 318.252 382.511L339.072 382.514L339.125 365.121L360.425 365.052L360.395 349.885L381.005 349.966C380.9 336.717 380.9 323.467 381.005 310.219Z" fill="#7A7A7A"/>
<path d="M239.673 57.2051L423.633 57.2501L423.611 77.8516L239.672 77.8171C239.921 71.4458 239.692 63.6792 239.673 57.2051Z" fill="#7A7A7A"/>
<path d="M70.7925 571.044C76.0523 571.3 81.9712 571.136 87.2842 571.107C87.2437 576.206 87.3787 581.574 87.4342 586.695C90.9547 586.57 94.929 586.656 98.49 586.653L98.6122 604.239L87.8812 604.228L87.948 625.606L72.573 625.441C72.7762 629.462 73.7385 639.184 71.8485 642.215L69.6037 642.448C66.2137 642.598 65.019 643.258 62.631 640.865C61.2757 637.436 62.088 629.747 62.1518 625.343L40.473 625.321L40.4062 604.259L57.3577 604.228L57.4095 587.023L71.0835 587.135L70.7925 571.044Z" fill="#7A7A7A"/>
<path d="M279.422 457.212L381.549 457.26L381.541 474.802L279.443 474.89L279.422 457.212Z" fill="#7A7A7A"/>
<path d="M447.147 710.437C449.442 709.394 466.94 709.882 470.63 709.919L470.69 734.165H452.472L452.375 745.553L427.055 745.403L427.167 712.162C433.25 712.29 442.595 713.52 447.147 710.437Z" fill="#7A7A7A"/>
<path d="M49.2891 62.0774L68.5153 62.0549L68.5093 94.1388L86.8123 94.1815L86.8408 113.035L68.0233 113.139C67.9326 106.907 68.0706 100.383 68.1186 94.1237L49.3101 94.1988L49.2891 62.0774Z" fill="#7A7A7A"/>
<path d="M169.356 185.942C175.762 186.124 182.298 186.162 188.717 186.266L188.769 222.228L169.274 222.194C169.213 210.11 169.24 198.026 169.356 185.942Z" fill="#7A7A7A"/>
<path d="M200.18 113.074L219.479 113.142C219.288 125.214 219.368 137.55 219.317 149.646L200.344 149.456C200.424 137.328 200.369 125.2 200.18 113.074Z" fill="#7A7A7A"/>
<path d="M220.109 76.7877C226.415 76.5162 232.727 76.7645 239.038 76.9228C238.646 88.3683 238.947 101.56 238.967 113.137L220.21 113.102L220.109 76.7877Z" fill="#7A7A7A"/>
<path d="M402.35 276.238L421.197 276.454L421.092 310.229L402.305 310.25C402.485 299.065 402.35 287.457 402.35 276.238Z" fill="#7A7A7A"/>
<path d="M106.164 130.271L132.162 130.223C132.152 135.754 131.995 142.087 132.162 147.55L106.283 147.553L106.164 130.271Z" fill="#7A7A7A"/>
<path d="M166.758 546.504C173.521 546.28 181.018 546.455 187.844 546.482C187.441 552.804 187.651 560.2 187.695 566.621L166.825 566.516L166.758 546.504Z" fill="#7A7A7A"/>
<path d="M132.164 147.55L152.797 147.408L152.89 166.141L132.289 166.228L132.164 147.55Z" fill="#7A7A7A"/>
<path d="M187.879 566.453C194.142 566.413 200.404 566.45 206.666 566.564L206.75 585.111L187.875 585.177L187.879 566.453Z" fill="#7A7A7A"/>
<path d="M506.047 348.393C512.512 348.668 518.977 348.792 525.449 348.764V365.933L506.324 366.171L506.047 348.393Z" fill="#7A7A7A"/>
<path d="M186.648 401.018L206.445 401.106L206.481 417.821C199.935 417.743 193.225 417.833 186.665 417.846L186.648 401.018Z" fill="#7A7A7A"/>
<path d="M152.891 166.141L169.555 166.192L169.606 185.711C164.1 185.673 158.594 185.666 153.087 185.69L152.891 166.141Z" fill="#7A7A7A"/>
<path d="M167.656 418.994C173.871 419.125 180.573 418.98 186.828 418.96C187.025 423.99 186.855 430.369 186.848 435.501L167.829 435.606L167.656 418.994Z" fill="#7A7A7A"/>
<path d="M87.3017 113.095L105.764 113.112C105.696 118.75 105.782 124.558 105.797 130.211L87.2656 130.235L87.3017 113.095Z" fill="#7A7A7A"/>
<path d="M188.991 222.912L207.43 222.902L207.494 239.142L188.938 239.145L188.991 222.912Z" fill="#7A7A7A"/>
<path d="M490.25 329.806L505.865 329.93C505.888 335.316 505.693 343.199 506.045 348.393C500.465 348.14 495.823 348.127 490.273 348.215L490.25 329.806Z" fill="#7A7A7A"/>
</svg>
